# xmcd
# 
# Track frame offsets:
#     150
#     14002
#     33735
#     50447
#     65855
#     80737
#     97857
#     130102
#     147130
#     164457
#     180930
# 
# Disc length: 2604
# 
# Revision: 2
# Processed by: cddbd v1.5.2PL0 Copyright (c) Steve Scherf et al.
# Submitted via: fre:ac v1.0.27
# 
DISCID=950a2a0b
DTITLE=The ScotRail Vale Of Atholl Pipe Band - The ScotRail Vale Of Atholl Pipe Band
DYEAR=0
DGENRE=
TTITLE0=ホーンパイプ
TTITLE1=、ストラスペイとリール
TTITLE2=6/8マーチ
TTITLE3=2/4マーチ
TTITLE4=ジグ
TTITLE5=、ストラスペイとリール
TTITLE6=ジグ
TTITLE7=エアーとホーンパイプ
TTITLE8=パイプ独奏
TTITLE9=エアーとリール
TTITLE10=ストラスペイ、リールとホーンパイプ
EXTD=
EXTT0=
EXTT1=
EXTT2=
EXTT3=
EXTT4=
EXTT5=
EXTT6=
EXTT7=
EXTT8=
EXTT9=
EXTT10=
PLAYORDER=
